<svg width="320" height="89" viewBox="0 0 320 89" fill="none" xmlns="http://www.w3.org/2000/svg">
<path d="M140.893 54.7232C140.893 54.7232 140.893 21.9245 140.893 3.55437C140.893 3.34322 140.893 3.09688 140.893 2.88573L140.822 1.51325H123.242V72.4247H95.028V1.47805H77.4471V2.60419C77.4471 2.60419 77.3769 2.85053 77.3769 2.95611C77.3769 3.16726 77.3769 3.34322 77.3769 3.55437V14.0767C77.3769 33.9249 77.3769 53.8082 77.3769 73.6564C77.3769 82.0672 84.711 88.9296 93.7296 88.9296C98.4669 88.9296 103.204 88.9296 107.942 88.9296C113.591 88.9296 119.171 88.9296 124.61 88.9296C128.891 88.9296 132.611 87.5219 135.769 84.777C139.138 81.8561 140.858 78.1961 140.998 73.6212V72.4247H123.417L140.963 54.7232H140.893ZM63.3754 36.9866H45.9349C46.8823 36.5291 63.5157 33.2562 63.5859 22.8747V1.51325H45.9349V36.9514H17.6511V1.47805H0L0.0701831 88.9648H17.6861V53.5971H45.9349V88.9648H63.4456L63.5508 87.6979C63.5508 87.6979 63.5508 87.3812 63.5508 87.2404C63.5508 75.5919 63.5508 52.2598 63.5508 52.2246L63.3052 36.9866H63.3754ZM302.314 17.6663V88.8944H319.895L320 0L302.314 17.6663ZM274.276 1.44286C260.765 1.44286 226.446 1.44286 226.446 1.44286L244.132 19.2499H271.995C267.959 25.7956 260.274 37.9367 252.203 50.7113C243.114 65.14 233.71 80.0261 229.885 86.2902C229.78 86.5014 229.639 86.7125 229.534 86.9589L228.446 89H235.394C239.149 89 243.009 89 246.799 89C248.027 89 248.834 88.5425 249.501 87.4868C261.011 68.6943 273.258 48.7054 288.067 24.6694C289.927 21.6429 290.663 18.3701 290.277 14.9917C289.4 7.42546 282.347 1.47805 274.241 1.44286H274.276ZM217.884 22.6987C217.884 20.728 217.884 18.7572 217.884 16.7865C217.884 15.7659 217.778 14.7805 217.568 13.8304C215.954 6.51048 209.251 1.40767 201.215 1.40767C191.319 1.40767 181.458 1.40767 171.563 1.40767H154.368V88.9296H172.054C181.844 88.9296 191.6 88.9296 201.391 88.9296C202.584 88.9296 203.707 88.824 204.724 88.6129C212.444 87.0996 217.848 80.8707 217.884 73.4804C217.884 68.0257 217.884 62.571 217.884 57.1162V52.1542C217.884 45.1862 212.901 39.274 205.917 37.444C205.672 37.3737 200.408 36.8458 200.162 36.7754H172.054V17.9478H200.162V36.7754L217.919 28.5053C217.919 28.5053 217.919 24.5991 217.919 22.6283L217.884 22.6987ZM200.232 53.4915C200.232 58.6295 200.232 66.7588 200.232 70.9466V72.3543H172.054V53.4915H200.232Z" fill="black"/>
</svg>
